<?xml version="1.0" standalone="no"?>
<!DOCTYPE svg PUBLIC "-//W3C//DTD SVG 20010904//EN"
 "http://www.w3.org/TR/2001/REC-SVG-20010904/DTD/svg10.dtd">
<svg version="1.0" xmlns="http://www.w3.org/2000/svg"
 width="1488.000000pt" height="1488.000000pt" viewBox="0 0 1488.000000 1488.000000"
 preserveAspectRatio="xMidYMid meet">
<metadata>
Created by potrace 1.14, written by Peter Selinger 2001-2017
</metadata>
<g transform="translate(0.000000,1488.000000) scale(0.100000,-0.100000)"
fill="#000000" stroke="none">
<path d="M11294 10606 c-349 -106 -843 -383 -1702 -955 -1095 -730 -2667
-1874 -3604 -2622 -109 -87 -210 -165 -226 -173 -20 -10 -162 -23 -527 -45
-1223 -76 -1425 -92 -1660 -127 -242 -36 -400 -101 -508 -208 -85 -83 -121
-158 -121 -251 -1 -83 21 -132 83 -188 48 -43 75 -58 161 -85 166 -54 208 -57
745 -56 384 1 524 4 602 16 91 13 101 13 90 0 -6 -9 -93 -83 -192 -166 -701
-586 -1150 -1008 -1222 -1150 -52 -102 -31 -221 51 -294 74 -65 161 -69 272
-12 129 65 271 177 694 550 740 652 1737 1500 1763 1500 12 0 146 7 297 15
747 40 1720 66 1720 46 0 -6 -109 -145 -243 -309 -554 -680 -934 -1180 -994
-1309 -47 -101 -29 -221 52 -359 45 -76 103 -128 171 -154 106 -39 139 -26
287 119 211 205 749 855 1506 1821 l154 195 411 6 c226 3 507 12 624 19 172
11 247 11 390 1 284 -20 285 -6 -9 -153 -140 -69 -398 -192 -574 -273 -670
-309 -829 -399 -1215 -691 -229 -173 -327 -259 -375 -329 -36 -52 -40 -63 -40
-119 1 -114 54 -174 204 -230 131 -49 145 -51 376 -50 246 1 539 19 1120 69
598 52 870 72 1195 90 828 45 860 48 884 87 14 23 -13 130 -55 216 -59 121
-102 127 -764 118 -757 -10 -1340 -25 -1460 -36 -60 -5 -143 -13 -184 -16 -54
-5 -72 -4 -67 4 9 16 232 153 461 285 104 60 214 126 245 147 94 64 173 100
890 410 561 242 687 313 710 401 44 164 -155 371 -446 462 -184 58 -448 75
-1312 85 l-594 7 159 195 c395 486 1547 1921 1785 2225 273 349 433 624 468
802 15 77 8 200 -15 269 -61 182 -249 264 -461 200z m-488 -811 c-31 -41 -362
-448 -734 -903 -922 -1125 -1602 -1954 -1618 -1971 -9 -10 -56 -16 -166 -22
-214 -12 -1460 -28 -1533 -20 l-59 6 84 65 c47 37 146 111 220 166 1007 749
1807 1338 2290 1685 713 514 1553 1089 1568 1074 3 -2 -21 -38 -52 -80z
m-5711 -3495 c-9 -14 -197 -170 -206 -170 -4 0 -12 15 -18 33 -11 33 -58 85
-96 105 -30 16 -8 21 150 30 77 5 148 10 158 11 10 0 15 -3 12 -9z"/>
</g>
</svg>
