<?xml version="1.0" standalone="no"?>
<!DOCTYPE svg PUBLIC "-//W3C//DTD SVG 20010904//EN"
 "http://www.w3.org/TR/2001/REC-SVG-20010904/DTD/svg10.dtd">
<svg version="1.0" xmlns="http://www.w3.org/2000/svg"
 width="70.000000pt" height="30.000000pt" viewBox="0 0 523.000000 371.000000"
 preserveAspectRatio="xMidYMid meet">

<g transform="translate(0.000000,371.000000) scale(0.100000,-0.100000)"
fill="#fff700" stroke="none">
<path d="M4865 3695 c-227 -61 -656 -315 -1375 -814 -597 -413 -1434 -1033
-1770 -1310 -41 -34 -84 -63 -95 -66 -11 -2 -218 -15 -460 -30 -775 -46 -894
-61 -1017 -127 -142 -75 -191 -221 -102 -304 38 -37 96 -58 204 -76 94 -16
554 -15 664 1 44 6 80 10 82 9 1 -2 -41 -39 -94 -83 -362 -298 -674 -586 -732
-673 -73 -110 3 -239 126 -216 66 12 205 119 484 370 80 71 333 290 562 486
l416 355 119 7 c243 14 537 25 808 32 240 6 278 5 269 -7 -6 -8 -71 -88 -146
-179 -316 -387 -535 -675 -578 -759 -33 -67 -16 -147 53 -245 27 -38 98 -69
139 -61 73 17 297 277 962 1119 l108 138 202 -2 c110 -1 271 3 356 9 144 11
211 10 364 -5 l59 -6 -134 -70 c-74 -38 -253 -123 -399 -189 -353 -160 -461
-223 -716 -420 -166 -128 -203 -175 -190 -244 10 -53 43 -83 126 -112 70 -25
86 -27 230 -26 85 1 317 15 515 32 506 44 697 58 955 70 311 15 360 20 367 38
11 28 -30 145 -58 166 -41 30 -146 36 -474 27 -165 -5 -388 -9 -495 -10 -107
0 -253 -6 -325 -14 -71 -7 -132 -11 -133 -10 -7 5 170 115 273 172 55 30 122
70 148 89 53 37 80 50 542 249 354 153 395 178 395 247 0 100 -128 209 -296
251 -101 26 -314 37 -707 37 l-377 0 83 102 c285 349 1017 1262 1097 1368 182
243 247 380 237 496 -10 107 -55 168 -142 192 -50 14 -67 13 -130 -4z m-296
-482 c-29 -38 -349 -429 -711 -870 l-658 -801 -103 -6 c-56 -3 -289 -8 -517
-11 -404 -5 -414 -4 -395 14 28 26 1093 814 1415 1046 489 353 987 695 1013
695 5 0 -15 -30 -44 -67z m-3339 -2044 c-94 -82 -110 -92 -110 -71 0 28 -35
68 -67 78 -23 7 -14 10 47 14 41 4 95 7 120 8 l45 1 -35 -30z"/>
</g>
</svg>
